<svg width="240" height="330" viewBox="0 0 240 330" fill="none" xmlns="http://www.w3.org/2000/svg">
<rect x="1" y="1" width="238" height="328" rx="49" fill="#FEFEFE" stroke="url(#paint0_linear_26_431)" stroke-width="2"/>
<g clip-path="url(#clip0_26_431)">
<rect x="10" y="10" width="220" height="310" rx="40" fill="#FF9B7A"/>
<path d="M193.5 -54.5V87.5H141.945L142.082 88.1094C143.663 95.1527 144.5 102.479 144.5 110C144.5 164.952 99.9523 209.5 45 209.5C-9.95233 209.5 -54.5 164.952 -54.5 110C-54.5 85.3114 -45.5073 62.7253 -30.6201 45.333L-30.5 45.1924V-54.5H193.5Z" fill="#FFE3DA" stroke="#B41D1D"/>
<path d="M120 125.5C129.366 125.5 137 133.486 137 143.391C137 145.423 136.677 147.376 136.084 149.195C135.773 150.15 136.451 151.247 137.5 151.247C146.866 151.247 154.5 159.233 154.5 169.138C154.5 179.042 146.866 187.028 137.5 187.028C133.327 187.028 129.504 185.446 126.542 182.815C125.525 181.912 123.901 182.577 123.901 184C123.901 189.024 125.086 193.232 127.207 196.199C129.337 199.18 132.404 200.89 136.081 200.89C136.552 200.89 137 201.322 137 201.89V202.747C137 203.742 136.244 204.5 135.369 204.5H104.631C103.756 204.5 103 203.742 103 202.747V201.89C103 201.322 103.448 200.89 103.919 200.89C107.596 200.89 110.663 199.18 112.793 196.199C114.914 193.232 116.098 189.023 116.098 184C116.098 182.577 114.474 181.912 113.457 182.815C110.496 185.446 106.673 187.028 102.5 187.028C93.1343 187.028 85.5 179.042 85.5 169.138C85.5001 159.233 93.1343 151.247 102.5 151.247C103.548 151.247 104.227 150.15 103.916 149.196C103.323 147.377 103 145.424 103 143.391C103 133.486 110.634 125.5 120 125.5Z" fill="#FFEF9D" stroke="#CF4F25"/>
<path d="M177.001 101H230.001L250 307L197 328C195.841 301.226 186.001 289 159.501 286C133.001 283 122.277 269.571 122.001 249C121.721 228.015 139.019 210.571 160.001 211C166.868 211.14 177.001 215.5 177.001 215.5V101Z" fill="#B99292" stroke="#B41D1D"/>
</g>
<defs>
<linearGradient id="paint0_linear_26_431" x1="-12.5" y1="-33.5" x2="240" y2="225" gradientUnits="userSpaceOnUse">
<stop stop-color="#DDDDDD"/>
<stop offset="1" stop-color="#777777"/>
</linearGradient>
<clipPath id="clip0_26_431">
<rect x="10" y="10" width="220" height="310" rx="40" fill="white"/>
</clipPath>
</defs>
</svg>
