<svg width="240" height="330" viewBox="0 0 240 330" fill="none" xmlns="http://www.w3.org/2000/svg">
<rect x="1" y="1" width="238" height="328" rx="49" fill="#FEFEFE" stroke="url(#paint0_linear_6_2)" stroke-width="2"/>
<path d="M89.2532 101.747C89.3882 102.219 89.4557 102.658 89.4557 103.063C89.4557 103.401 89.3207 103.772 89.0506 104.177C88.8481 104.582 88.5781 104.92 88.2405 105.19C87.5654 105.73 86.8228 106 86.0127 106C84.3924 106 83.3122 105.325 82.7722 103.975L77.8101 91.4177H50.1646L45.2025 103.975C44.73 105.325 43.7848 106 42.3671 106C40.8819 106 39.8354 105.392 39.2278 104.177C39.0253 103.772 38.9241 103.401 38.9241 103.063C38.9241 102.658 38.9916 102.219 39.1266 101.747L57.6582 56.3797C58.9409 52.8692 60.4937 50.9114 62.3165 50.5063C62.8565 50.3713 63.4641 50.3038 64.1392 50.3038C65.557 50.3038 66.6034 50.5738 67.2785 51.1139C68.5612 52.2616 69.6414 54.0169 70.519 56.3797L89.2532 101.747ZM52.1899 86.1519H75.8861L64.038 56.076L52.1899 86.1519Z" fill="#B41D1D"/>
<path d="M65.4273 219.83C73.3363 209.39 86.1593 209.39 94.0683 219.83C101.977 230.269 101.977 247.195 94.0683 257.635L75.5297 282.1C70.5711 288.645 68.071 291.945 65.0001 292C61.9291 291.945 59.4289 288.645 54.4703 282.1L35.9317 257.635C28.0228 247.195 28.0227 230.269 35.9317 219.83C43.8408 209.39 56.6638 209.39 64.5727 219.83C64.7741 220.095 65.2259 220.096 65.4273 219.83Z" fill="#B41D1D"/>
<defs>
<linearGradient id="paint0_linear_6_2" x1="-12.5" y1="-33.5" x2="240" y2="225" gradientUnits="userSpaceOnUse">
<stop stop-color="#DDDDDD"/>
<stop offset="1" stop-color="#777777"/>
</linearGradient>
</defs>
</svg>
