<svg width="240" height="330" viewBox="0 0 240 330" fill="none" xmlns="http://www.w3.org/2000/svg">
<rect x="1" y="1" width="238" height="328" rx="49" fill="#FEFEFE" stroke="url(#paint0_linear_26_219)" stroke-width="2"/>
<path d="M60.2911 55.5696C59.1435 55.5696 58.0633 55.6709 57.0506 55.8734C56.1055 56.0084 55.1941 56.2447 54.3165 56.5823C52.2236 57.3924 50.6709 58.135 49.6582 58.8101C48.9156 59.2152 48.173 59.4177 47.4304 59.4177C46.7553 59.4177 46.1477 59.1814 45.6076 58.7089C45.135 58.2363 44.8987 57.6962 44.8987 57.0886C44.8987 56.481 45.135 55.9072 45.6076 55.3671C46.0802 54.7595 46.7215 54.1857 47.5316 53.6456C48.3418 53.1055 49.2532 52.6329 50.2658 52.2278C51.346 51.7553 52.4599 51.3165 53.6076 50.9114C56.1055 50.1688 58.4346 49.7975 60.5949 49.7975C62.7553 49.7975 64.8143 50.1013 66.7722 50.7089C68.7975 51.2489 70.5527 52.0591 72.038 53.1392C75.346 55.5696 77 58.8439 77 62.962C77 69.7806 71.7679 78.3207 61.3038 88.5823C59.2785 90.6076 57.1519 92.7342 54.9241 94.962C52.7637 97.1224 50.8734 98.9114 49.2532 100.329H74.2658C75.211 100.329 75.8861 100.633 76.2911 101.241C76.7637 101.848 77 102.523 77 103.266C77 103.941 76.7637 104.582 76.2911 105.19C75.8186 105.73 75.1435 106 74.2658 106H45.9114C44.2911 106 43.0759 105.662 42.2658 104.987C41.5232 104.312 41.1519 103.502 41.1519 102.557C41.1519 100.734 42.0295 99.0802 43.7848 97.5949C45.0675 96.4473 46.6878 94.827 48.6456 92.7342C50.6034 90.6413 52.5274 88.6498 54.4177 86.7595C56.308 84.8692 58.1646 82.8776 59.9873 80.7848C61.8776 78.6245 63.5654 76.5316 65.0506 74.5063C68.2911 70.1181 69.9114 66.4726 69.9114 63.5696C69.9114 61.0042 68.8987 59.0127 66.8734 57.5949C64.9831 56.2447 62.789 55.5696 60.2911 55.5696Z" fill="#1D1D1D"/>
<path d="M64.976 212C68.0781 212 70.5749 214.593 75.5678 219.779L93.5687 238.479C93.5709 238.481 93.5707 238.485 93.5687 238.487C93.5671 238.49 93.5677 238.493 93.5697 238.495C93.7406 238.661 93.9109 238.829 94.0775 239.002C101.974 247.205 101.974 260.504 94.0775 268.707C87.3887 275.655 77.1801 276.717 69.4144 271.895C69.6881 281.292 74.2876 287.39 81.0814 287.39C81.8543 287.39 82.5003 288.073 82.5004 288.89V289.747C82.5004 290.991 81.5462 292 80.3695 292H49.6312C48.4544 292 47.5004 290.991 47.5004 289.747V288.89C47.5004 288.072 48.1463 287.39 48.9193 287.39C55.6781 287.389 60.2622 281.354 60.5785 272.039C52.8135 276.857 42.6091 275.794 35.9222 268.848C28.0259 260.645 28.0259 247.346 35.9222 239.144C36.0881 238.971 36.2589 238.805 36.4291 238.64V238.612L36.4447 238.597C36.4568 238.584 36.4568 238.563 36.4447 238.551L36.4232 238.528C36.399 238.503 36.399 238.462 36.4232 238.437L54.3842 219.779C59.377 214.593 61.8738 212 64.976 212Z" fill="#1D1D1D"/>
<defs>
<linearGradient id="paint0_linear_26_219" x1="-12.5" y1="-33.5" x2="240" y2="225" gradientUnits="userSpaceOnUse">
<stop stop-color="#DDDDDD"/>
<stop offset="1" stop-color="#777777"/>
</linearGradient>
</defs>
</svg>
