<svg width="240" height="330" viewBox="0 0 240 330" fill="none" xmlns="http://www.w3.org/2000/svg">
<rect x="1" y="1" width="238" height="328" rx="49" fill="#FEFEFE" stroke="url(#paint0_linear_6_10)" stroke-width="2"/>
<path d="M89.2532 101.747C89.3882 102.219 89.4557 102.658 89.4557 103.063C89.4557 103.401 89.3207 103.772 89.0506 104.177C88.8481 104.582 88.5781 104.92 88.2405 105.19C87.5654 105.73 86.8228 106 86.0127 106C84.3924 106 83.3122 105.325 82.7722 103.975L77.8101 91.4177H50.1646L45.2025 103.975C44.73 105.325 43.7848 106 42.3671 106C40.8819 106 39.8354 105.392 39.2278 104.177C39.0253 103.772 38.9241 103.401 38.9241 103.063C38.9241 102.658 38.9916 102.219 39.1266 101.747L57.6582 56.3797C58.9409 52.8692 60.4937 50.9114 62.3165 50.5063C62.8565 50.3713 63.4641 50.3038 64.1392 50.3038C65.557 50.3038 66.6034 50.5738 67.2785 51.1139C68.5612 52.2616 69.6414 54.0169 70.519 56.3797L89.2532 101.747ZM52.1899 86.1519H75.8861L64.038 56.076L52.1899 86.1519Z" fill="#1D1D1D"/>
<path d="M64.976 212C68.0781 212 70.5749 214.593 75.5678 219.779L93.5687 238.479C93.5709 238.481 93.5707 238.485 93.5687 238.487C93.5671 238.49 93.5677 238.493 93.5697 238.495C93.7406 238.661 93.9109 238.829 94.0775 239.002C101.974 247.205 101.974 260.504 94.0775 268.707C87.3887 275.655 77.1801 276.717 69.4144 271.895C69.6881 281.292 74.2876 287.39 81.0814 287.39C81.8543 287.39 82.5003 288.073 82.5004 288.89V289.747C82.5004 290.991 81.5462 292 80.3695 292H49.6312C48.4544 292 47.5004 290.991 47.5004 289.747V288.89C47.5004 288.072 48.1463 287.39 48.9193 287.39C55.6781 287.389 60.2622 281.354 60.5785 272.039C52.8135 276.857 42.6091 275.794 35.9222 268.848C28.0259 260.645 28.0259 247.346 35.9222 239.144C36.0881 238.971 36.2589 238.805 36.4291 238.64V238.612L36.4447 238.597C36.4568 238.584 36.4568 238.563 36.4447 238.551L36.4232 238.528C36.399 238.503 36.399 238.462 36.4232 238.437L54.3842 219.779C59.377 214.593 61.8738 212 64.976 212Z" fill="#1D1D1D"/>
<defs>
<linearGradient id="paint0_linear_6_10" x1="-12.5" y1="-33.5" x2="240" y2="225" gradientUnits="userSpaceOnUse">
<stop stop-color="#DDDDDD"/>
<stop offset="1" stop-color="#777777"/>
</linearGradient>
</defs>
</svg>
