<svg width="240" height="330" viewBox="0 0 240 330" fill="none" xmlns="http://www.w3.org/2000/svg">
<rect x="1" y="1" width="238" height="328" rx="49" fill="#FEFEFE" stroke="url(#paint0_linear_26_313)" stroke-width="2"/>
<path d="M57.0506 104.076C56.5105 105.359 55.4641 106 53.9114 106C52.4262 106 51.3122 105.359 50.5696 104.076C50.2996 103.671 50.1646 103.266 50.1646 102.861C50.1646 102.388 50.2996 101.882 50.5696 101.342L70.4177 55.9747H43.8861C42.9409 55.9747 42.2321 55.7046 41.7595 55.1646C41.2869 54.557 41.0506 53.9156 41.0506 53.2405C41.0506 52.4979 41.2869 51.8228 41.7595 51.2152C42.2321 50.6076 42.9409 50.3038 43.8861 50.3038H73.7595C75.1772 50.3038 76.1899 50.6414 76.7975 51.3165C77.4726 51.9916 77.8101 52.8017 77.8101 53.7468C77.8101 54.692 77.6076 55.6034 77.2025 56.481L57.0506 104.076Z" fill="#1D1D1D"/>
<path d="M64.976 212C68.0781 212 70.5749 214.593 75.5678 219.779L93.5687 238.479C93.5709 238.481 93.5707 238.485 93.5687 238.487C93.5671 238.49 93.5677 238.493 93.5697 238.495C93.7406 238.661 93.9109 238.829 94.0775 239.002C101.974 247.205 101.974 260.504 94.0775 268.707C87.3887 275.655 77.1801 276.717 69.4144 271.895C69.6881 281.292 74.2876 287.39 81.0814 287.39C81.8543 287.39 82.5003 288.073 82.5004 288.89V289.747C82.5004 290.991 81.5462 292 80.3695 292H49.6312C48.4544 292 47.5004 290.991 47.5004 289.747V288.89C47.5004 288.072 48.1463 287.39 48.9193 287.39C55.6781 287.389 60.2622 281.354 60.5785 272.039C52.8135 276.857 42.6091 275.794 35.9222 268.848C28.0259 260.645 28.0259 247.346 35.9222 239.144C36.0881 238.971 36.2589 238.805 36.4291 238.64V238.612L36.4447 238.597C36.4568 238.584 36.4568 238.563 36.4447 238.551L36.4232 238.528C36.399 238.503 36.399 238.462 36.4232 238.437L54.3842 219.779C59.377 214.593 61.8738 212 64.976 212Z" fill="#1D1D1D"/>
<defs>
<linearGradient id="paint0_linear_26_313" x1="-12.5" y1="-33.5" x2="240" y2="225" gradientUnits="userSpaceOnUse">
<stop stop-color="#DDDDDD"/>
<stop offset="1" stop-color="#777777"/>
</linearGradient>
</defs>
</svg>
