<svg width="240" height="330" viewBox="0 0 240 330" fill="none" xmlns="http://www.w3.org/2000/svg">
<rect x="1" y="1" width="238" height="328" rx="49" fill="#FEFEFE" stroke="url(#paint0_linear_26_329)" stroke-width="2"/>
<path d="M54.4177 101.241C61.2363 101.241 64.6456 96.8861 64.6456 88.1772V53.5443C64.6456 51.9916 65.3882 50.9789 66.8734 50.5063C67.2785 50.3713 67.7173 50.3038 68.1899 50.3038C69.6751 50.3038 70.7215 50.9114 71.3291 52.1266C71.5316 52.5316 71.6329 53.0042 71.6329 53.5443V88.7848C71.6329 94.9283 69.8776 99.5865 66.3671 102.759C63.3291 105.46 59.346 106.81 54.4177 106.81C51.1097 106.81 48.1392 105.932 45.5063 104.177C42.7384 102.489 40.8143 99.9916 39.7342 96.6835C39.4641 96.0759 39.3291 95.4346 39.3291 94.7595C39.3291 94.0169 39.5992 93.4093 40.1392 92.9367C40.7468 92.4641 41.3544 92.2278 41.962 92.2278C43.2447 92.2278 44.1224 92.7679 44.5949 93.8481C46.2827 98.7764 49.557 101.241 54.4177 101.241Z" fill="#1D1D1D"/>
<path d="M64.976 212C68.0781 212 70.5749 214.593 75.5678 219.779L93.5687 238.479C93.5709 238.481 93.5707 238.485 93.5687 238.487C93.5671 238.49 93.5677 238.493 93.5697 238.495C93.7406 238.661 93.9109 238.829 94.0775 239.002C101.974 247.205 101.974 260.504 94.0775 268.707C87.3887 275.655 77.1801 276.717 69.4144 271.895C69.6881 281.292 74.2876 287.39 81.0814 287.39C81.8543 287.39 82.5003 288.073 82.5004 288.89V289.747C82.5004 290.991 81.5462 292 80.3695 292H49.6312C48.4544 292 47.5004 290.991 47.5004 289.747V288.89C47.5004 288.072 48.1463 287.39 48.9193 287.39C55.6781 287.389 60.2622 281.354 60.5785 272.039C52.8135 276.857 42.6091 275.794 35.9222 268.848C28.0259 260.645 28.0259 247.346 35.9222 239.144C36.0881 238.971 36.2589 238.805 36.4291 238.64V238.612L36.4447 238.597C36.4568 238.584 36.4568 238.563 36.4447 238.551L36.4232 238.528C36.399 238.503 36.399 238.462 36.4232 238.437L54.3842 219.779C59.377 214.593 61.8738 212 64.976 212Z" fill="#1D1D1D"/>
<defs>
<linearGradient id="paint0_linear_26_329" x1="-12.5" y1="-33.5" x2="240" y2="225" gradientUnits="userSpaceOnUse">
<stop stop-color="#DDDDDD"/>
<stop offset="1" stop-color="#777777"/>
</linearGradient>
</defs>
</svg>
