<svg width="240" height="330" viewBox="0 0 240 330" fill="none" xmlns="http://www.w3.org/2000/svg">
<rect x="1" y="1" width="238" height="328" rx="49" fill="#FEFEFE" stroke="url(#paint0_linear_26_297)" stroke-width="2"/>
<path d="M48.5443 54.557C50.2321 53.0717 52.2574 51.9241 54.6203 51.1139C56.9831 50.2363 60.0886 49.7975 63.9367 49.7975C67.7848 49.7975 71.4641 50.7426 74.9747 52.6329C75.7848 52.9705 76.1899 53.6793 76.1899 54.7595C76.1899 55.9072 75.6835 56.8186 74.6709 57.4937C74.3333 57.6962 73.9958 57.7975 73.6582 57.7975C73.3882 57.7975 72.7806 57.5949 71.8354 57.1899C69 56.0422 66.2996 55.4684 63.7342 55.4684C61.1688 55.4684 59.0422 55.8059 57.3544 56.481C55.6667 57.1561 54.2489 58.0675 53.1013 59.2152C51.9536 60.2954 51.0084 61.5781 50.2658 63.0633C49.5232 64.5485 48.9494 66.135 48.5443 67.8228C47.9367 70.7257 47.6329 74.1688 47.6329 78.1519C48.9831 75.384 50.9072 73.3249 53.4051 71.9747C55.903 70.557 58.6371 69.8481 61.6076 69.8481C64.5781 69.8481 67.1097 70.2869 69.2025 71.1646C71.3629 72.0422 73.1857 73.2574 74.6709 74.8101C77.7089 77.9831 79.2278 82.3376 79.2278 87.8734C79.2278 93.5443 77.6076 98.1013 74.3671 101.544C71.1266 105.055 66.6371 106.81 60.8987 106.81C47.2616 106.81 40.443 98 40.443 80.3797C40.443 67.8903 43.1435 59.2827 48.5443 54.557ZM60.4937 101.342C62.2489 101.342 63.8692 101.038 65.3544 100.43C66.8397 99.8228 68.1224 98.9789 69.2025 97.8987C71.2278 95.6709 72.2405 92.4304 72.2405 88.1772C72.2405 82.0338 70.2152 77.9156 66.1646 75.8228C64.8143 75.1477 63.1266 74.8101 61.1013 74.8101C59.1435 74.8101 57.3544 75.1477 55.7342 75.8228C54.1814 76.4979 52.865 77.443 51.7848 78.6582C49.6245 80.9536 48.5443 84.2616 48.5443 88.5823C48.5443 92.3629 49.6245 95.4008 51.7848 97.6962C54.0802 100.127 56.9831 101.342 60.4937 101.342Z" fill="#1D1D1D"/>
<path d="M64.976 212C68.0781 212 70.5749 214.593 75.5678 219.779L93.5687 238.479C93.5709 238.481 93.5707 238.485 93.5687 238.487C93.5671 238.49 93.5677 238.493 93.5697 238.495C93.7406 238.661 93.9109 238.829 94.0775 239.002C101.974 247.205 101.974 260.504 94.0775 268.707C87.3887 275.655 77.1801 276.717 69.4144 271.895C69.6881 281.292 74.2876 287.39 81.0814 287.39C81.8543 287.39 82.5003 288.073 82.5004 288.89V289.747C82.5004 290.991 81.5462 292 80.3695 292H49.6312C48.4544 292 47.5004 290.991 47.5004 289.747V288.89C47.5004 288.072 48.1463 287.39 48.9193 287.39C55.6781 287.389 60.2622 281.354 60.5785 272.039C52.8135 276.857 42.6091 275.794 35.9222 268.848C28.0259 260.645 28.0259 247.346 35.9222 239.144C36.0881 238.971 36.2589 238.805 36.4291 238.64V238.612L36.4447 238.597C36.4568 238.584 36.4568 238.563 36.4447 238.551L36.4232 238.528C36.399 238.503 36.399 238.462 36.4232 238.437L54.3842 219.779C59.377 214.593 61.8738 212 64.976 212Z" fill="#1D1D1D"/>
<defs>
<linearGradient id="paint0_linear_26_297" x1="-12.5" y1="-33.5" x2="240" y2="225" gradientUnits="userSpaceOnUse">
<stop stop-color="#DDDDDD"/>
<stop offset="1" stop-color="#777777"/>
</linearGradient>
</defs>
</svg>
