<svg width="240" height="330" viewBox="0 0 240 330" fill="none" xmlns="http://www.w3.org/2000/svg">
<rect x="1" y="1" width="238" height="328" rx="49" fill="#FEFEFE" stroke="url(#paint0_linear_26_256)" stroke-width="2"/>
<path d="M61.1013 53.443C62.3165 51.3502 64.173 50.3038 66.6709 50.3038C68.8312 50.3038 70.3165 51.1814 71.1266 52.9367C71.3966 53.5443 71.5316 54.2532 71.5316 55.0633V88.481H77.5063C78.384 88.481 79.0253 88.7511 79.4304 89.2911C79.903 89.8312 80.1392 90.4388 80.1392 91.1139C80.1392 91.789 79.903 92.3966 79.4304 92.9367C79.0253 93.4093 78.384 93.6456 77.5063 93.6456H71.5316V102.861C71.5316 103.806 71.2954 104.481 70.8228 104.886C70.0127 105.629 69.135 106 68.1899 106C66.7722 106 65.7257 105.392 65.0506 104.177C64.8481 103.84 64.7468 103.401 64.7468 102.861V93.6456H42.2658C41.1181 93.6456 40.2068 93.2743 39.5316 92.5316C38.8565 91.789 38.519 91.0802 38.519 90.4051C38.519 89.1899 38.7553 88.211 39.2278 87.4684L61.1013 53.443ZM44.4937 88.481H64.7468V56.6835L44.4937 88.481Z" fill="#1D1D1D"/>
<path d="M64.976 212C68.0781 212 70.5749 214.593 75.5678 219.779L93.5687 238.479C93.5709 238.481 93.5707 238.485 93.5687 238.487C93.5671 238.49 93.5677 238.493 93.5697 238.495C93.7406 238.661 93.9109 238.829 94.0775 239.002C101.974 247.205 101.974 260.504 94.0775 268.707C87.3887 275.655 77.1801 276.717 69.4144 271.895C69.6881 281.292 74.2876 287.39 81.0814 287.39C81.8543 287.39 82.5003 288.073 82.5004 288.89V289.747C82.5004 290.991 81.5462 292 80.3695 292H49.6312C48.4544 292 47.5004 290.991 47.5004 289.747V288.89C47.5004 288.072 48.1463 287.39 48.9193 287.39C55.6781 287.389 60.2622 281.354 60.5785 272.039C52.8135 276.857 42.6091 275.794 35.9222 268.848C28.0259 260.645 28.0259 247.346 35.9222 239.144C36.0881 238.971 36.2589 238.805 36.4291 238.64V238.612L36.4447 238.597C36.4568 238.584 36.4568 238.563 36.4447 238.551L36.4232 238.528C36.399 238.503 36.399 238.462 36.4232 238.437L54.3842 219.779C59.377 214.593 61.8738 212 64.976 212Z" fill="#1D1D1D"/>
<defs>
<linearGradient id="paint0_linear_26_256" x1="-12.5" y1="-33.5" x2="240" y2="225" gradientUnits="userSpaceOnUse">
<stop stop-color="#DDDDDD"/>
<stop offset="1" stop-color="#777777"/>
</linearGradient>
</defs>
</svg>
