<svg width="240" height="330" viewBox="0 0 240 330" fill="none" xmlns="http://www.w3.org/2000/svg">
<rect x="1" y="1" width="238" height="328" rx="49" fill="#FEFEFE" stroke="url(#paint0_linear_26_378)" stroke-width="2"/>
<path d="M51.8861 102.759C51.8861 104.312 51.1435 105.325 49.6582 105.797C49.2532 105.932 48.8481 106 48.443 106C46.9578 106 45.9114 105.392 45.3038 104.177C45.1013 103.772 45 103.3 45 102.759V53.5443C45 52.4641 45.3713 51.654 46.1139 51.1139C46.8565 50.5738 47.5316 50.3038 48.1392 50.3038C48.7468 50.3038 49.2532 50.3713 49.6582 50.5063C50.1308 50.6414 50.5021 50.8439 50.7722 51.1139C51.5148 51.7215 51.8861 52.5316 51.8861 53.5443V74.9114L75.3797 51.519C75.9873 50.7089 76.7637 50.3038 77.7089 50.3038C78.654 50.3038 79.4304 50.5738 80.038 51.1139C80.7131 51.654 81.0506 52.2954 81.0506 53.038C81.0506 53.7806 80.7806 54.4895 80.2405 55.1646L59.1772 75.6203L82.4684 100.532C83.0084 101.274 83.2785 101.949 83.2785 102.557C83.2785 103.165 83.1772 103.671 82.9747 104.076C82.8397 104.414 82.6034 104.717 82.2658 104.987C81.5232 105.662 80.6793 106 79.7342 106C78.789 106 77.9114 105.527 77.1013 104.582L51.8861 77.3418V102.759Z" fill="#1D1D1D"/>
<path d="M64.976 212C68.0781 212 70.5749 214.593 75.5678 219.779L93.5687 238.479C93.5709 238.481 93.5707 238.485 93.5687 238.487C93.5671 238.49 93.5677 238.493 93.5697 238.495C93.7406 238.661 93.9109 238.829 94.0775 239.002C101.974 247.205 101.974 260.504 94.0775 268.707C87.3887 275.655 77.1801 276.717 69.4144 271.895C69.6881 281.292 74.2876 287.39 81.0814 287.39C81.8543 287.39 82.5003 288.073 82.5004 288.89V289.747C82.5004 290.991 81.5462 292 80.3695 292H49.6312C48.4544 292 47.5004 290.991 47.5004 289.747V288.89C47.5004 288.072 48.1463 287.39 48.9193 287.39C55.6781 287.389 60.2622 281.354 60.5785 272.039C52.8135 276.857 42.6091 275.794 35.9222 268.848C28.0259 260.645 28.0259 247.346 35.9222 239.144C36.0881 238.971 36.2589 238.805 36.4291 238.64V238.612L36.4447 238.597C36.4568 238.584 36.4568 238.563 36.4447 238.551L36.4232 238.528C36.399 238.503 36.399 238.462 36.4232 238.437L54.3842 219.779C59.377 214.593 61.8738 212 64.976 212Z" fill="#1D1D1D"/>
<defs>
<linearGradient id="paint0_linear_26_378" x1="-12.5" y1="-33.5" x2="240" y2="225" gradientUnits="userSpaceOnUse">
<stop stop-color="#DDDDDD"/>
<stop offset="1" stop-color="#777777"/>
</linearGradient>
</defs>
</svg>
