<svg width="240" height="330" viewBox="0 0 240 330" fill="none" xmlns="http://www.w3.org/2000/svg">
<rect x="1" y="1" width="238" height="328" rx="49" fill="#FEFEFE" stroke="url(#paint0_linear_26_211)" stroke-width="2"/>
<path d="M60.2911 55.5696C59.1435 55.5696 58.0633 55.6709 57.0506 55.8734C56.1055 56.0084 55.1941 56.2447 54.3165 56.5823C52.2236 57.3924 50.6709 58.135 49.6582 58.8101C48.9156 59.2152 48.173 59.4177 47.4304 59.4177C46.7553 59.4177 46.1477 59.1814 45.6076 58.7089C45.135 58.2363 44.8987 57.6962 44.8987 57.0886C44.8987 56.481 45.135 55.9072 45.6076 55.3671C46.0802 54.7595 46.7215 54.1857 47.5316 53.6456C48.3418 53.1055 49.2532 52.6329 50.2658 52.2278C51.346 51.7553 52.4599 51.3165 53.6076 50.9114C56.1055 50.1688 58.4346 49.7975 60.5949 49.7975C62.7553 49.7975 64.8143 50.1013 66.7722 50.7089C68.7975 51.2489 70.5527 52.0591 72.038 53.1392C75.346 55.5696 77 58.8439 77 62.962C77 69.7806 71.7679 78.3207 61.3038 88.5823C59.2785 90.6076 57.1519 92.7342 54.9241 94.962C52.7637 97.1224 50.8734 98.9114 49.2532 100.329H74.2658C75.211 100.329 75.8861 100.633 76.2911 101.241C76.7637 101.848 77 102.523 77 103.266C77 103.941 76.7637 104.582 76.2911 105.19C75.8186 105.73 75.1435 106 74.2658 106H45.9114C44.2911 106 43.0759 105.662 42.2658 104.987C41.5232 104.312 41.1519 103.502 41.1519 102.557C41.1519 100.734 42.0295 99.0802 43.7848 97.5949C45.0675 96.4473 46.6878 94.827 48.6456 92.7342C50.6034 90.6413 52.5274 88.6498 54.4177 86.7595C56.308 84.8692 58.1646 82.8776 59.9873 80.7848C61.8776 78.6245 63.5654 76.5316 65.0506 74.5063C68.2911 70.1181 69.9114 66.4726 69.9114 63.5696C69.9114 61.0042 68.8987 59.0127 66.8734 57.5949C64.9831 56.2447 62.789 55.5696 60.2911 55.5696Z" fill="#B41D1D"/>
<path d="M81.2816 278.187C73.8302 287.396 70.1045 292 65 292C59.8955 292 56.1698 287.396 48.7184 278.187L36.4445 263.018C32.1482 257.709 30 255.054 30 252C30 248.946 32.1482 246.291 36.4445 240.982L48.7184 225.813C56.1698 216.604 59.8955 212 65 212C70.1045 212 73.8302 216.604 81.2816 225.813L93.5555 240.982C97.8518 246.291 100 248.946 100 252C100 255.054 97.8518 257.709 93.5555 263.018L81.2816 278.187Z" fill="#B41D1D"/>
<defs>
<linearGradient id="paint0_linear_26_211" x1="-12.5" y1="-33.5" x2="240" y2="225" gradientUnits="userSpaceOnUse">
<stop stop-color="#DDDDDD"/>
<stop offset="1" stop-color="#777777"/>
</linearGradient>
</defs>
</svg>
