<svg width="240" height="330" viewBox="0 0 240 330" fill="none" xmlns="http://www.w3.org/2000/svg">
<rect x="1" y="1" width="238" height="328" rx="49" fill="#FEFEFE" stroke="url(#paint0_linear_26_321)" stroke-width="2"/>
<path d="M54.4177 101.241C61.2363 101.241 64.6456 96.8861 64.6456 88.1772V53.5443C64.6456 51.9916 65.3882 50.9789 66.8734 50.5063C67.2785 50.3713 67.7173 50.3038 68.1899 50.3038C69.6751 50.3038 70.7215 50.9114 71.3291 52.1266C71.5316 52.5316 71.6329 53.0042 71.6329 53.5443V88.7848C71.6329 94.9283 69.8776 99.5865 66.3671 102.759C63.3291 105.46 59.346 106.81 54.4177 106.81C51.1097 106.81 48.1392 105.932 45.5063 104.177C42.7384 102.489 40.8143 99.9916 39.7342 96.6835C39.4641 96.0759 39.3291 95.4346 39.3291 94.7595C39.3291 94.0169 39.5992 93.4093 40.1392 92.9367C40.7468 92.4641 41.3544 92.2278 41.962 92.2278C43.2447 92.2278 44.1224 92.7679 44.5949 93.8481C46.2827 98.7764 49.557 101.241 54.4177 101.241Z" fill="#B41D1D"/>
<path d="M81.2816 278.187C73.8302 287.396 70.1045 292 65 292C59.8955 292 56.1698 287.396 48.7184 278.187L36.4445 263.018C32.1482 257.709 30 255.054 30 252C30 248.946 32.1482 246.291 36.4445 240.982L48.7184 225.813C56.1698 216.604 59.8955 212 65 212C70.1045 212 73.8302 216.604 81.2816 225.813L93.5555 240.982C97.8518 246.291 100 248.946 100 252C100 255.054 97.8518 257.709 93.5555 263.018L81.2816 278.187Z" fill="#B41D1D"/>
<defs>
<linearGradient id="paint0_linear_26_321" x1="-12.5" y1="-33.5" x2="240" y2="225" gradientUnits="userSpaceOnUse">
<stop stop-color="#DDDDDD"/>
<stop offset="1" stop-color="#777777"/>
</linearGradient>
</defs>
</svg>
