<svg width="240" height="330" viewBox="0 0 240 330" fill="none" xmlns="http://www.w3.org/2000/svg">
<rect x="1" y="1" width="238" height="328" rx="49" fill="#FEFEFE" stroke="url(#paint0_linear_26_305)" stroke-width="2"/>
<path d="M57.0506 104.076C56.5105 105.359 55.4641 106 53.9114 106C52.4262 106 51.3122 105.359 50.5696 104.076C50.2996 103.671 50.1646 103.266 50.1646 102.861C50.1646 102.388 50.2996 101.882 50.5696 101.342L70.4177 55.9747H43.8861C42.9409 55.9747 42.2321 55.7046 41.7595 55.1646C41.2869 54.557 41.0506 53.9156 41.0506 53.2405C41.0506 52.4979 41.2869 51.8228 41.7595 51.2152C42.2321 50.6076 42.9409 50.3038 43.8861 50.3038H73.7595C75.1772 50.3038 76.1899 50.6414 76.7975 51.3165C77.4726 51.9916 77.8101 52.8017 77.8101 53.7468C77.8101 54.692 77.6076 55.6034 77.2025 56.481L57.0506 104.076Z" fill="#B41D1D"/>
<path d="M81.2816 278.187C73.8302 287.396 70.1045 292 65 292C59.8955 292 56.1698 287.396 48.7184 278.187L36.4445 263.018C32.1482 257.709 30 255.054 30 252C30 248.946 32.1482 246.291 36.4445 240.982L48.7184 225.813C56.1698 216.604 59.8955 212 65 212C70.1045 212 73.8302 216.604 81.2816 225.813L93.5555 240.982C97.8518 246.291 100 248.946 100 252C100 255.054 97.8518 257.709 93.5555 263.018L81.2816 278.187Z" fill="#B41D1D"/>
<defs>
<linearGradient id="paint0_linear_26_305" x1="-12.5" y1="-33.5" x2="240" y2="225" gradientUnits="userSpaceOnUse">
<stop stop-color="#DDDDDD"/>
<stop offset="1" stop-color="#777777"/>
</linearGradient>
</defs>
</svg>
