<svg width="240" height="330" viewBox="0 0 240 330" fill="none" xmlns="http://www.w3.org/2000/svg">
<rect x="1" y="1" width="238" height="328" rx="49" fill="#FEFEFE" stroke="url(#paint0_linear_26_273)" stroke-width="2"/>
<path d="M49.557 75.4177C52.9325 71.7722 57.0844 69.9494 62.0127 69.9494C67.0759 69.9494 71.1603 71.7046 74.2658 75.2152C77.3713 78.6582 78.9241 82.9789 78.9241 88.1772C78.9241 93.5781 77.2025 98.0338 73.7595 101.544C70.384 105.055 65.8945 106.81 60.2911 106.81C53.6751 106.81 48.7468 104.987 45.5063 101.342C44.4262 100.127 43.481 98.3713 42.6709 96.0759C42.5359 95.8059 42.4684 95.4008 42.4684 94.8608C42.4684 94.3207 42.7046 93.8143 43.1772 93.3418C43.7173 92.8017 44.2911 92.5316 44.8987 92.5316C46.0464 92.5316 46.9578 93.1392 47.6329 94.3544C49.5232 99.0127 53.5063 101.342 59.5823 101.342C65.4557 101.342 69.27 98.6414 71.0253 93.2405C71.4979 91.6203 71.7342 89.865 71.7342 87.9747C71.7342 86.0169 71.4979 84.2954 71.0253 82.8101C70.5527 81.3249 69.8439 80.0084 68.8987 78.8608C66.8059 76.4304 64.1055 75.2152 60.7975 75.2152C58.3671 75.2152 56.1055 75.8565 54.0127 77.1392C52.3924 78.1519 51.2785 79.1983 50.6709 80.2785C49.6582 82.1013 48.4093 83.0127 46.9241 83.0127C46.1814 83.0127 45.5401 82.7764 45 82.3038C44.4599 81.7637 44.1899 80.9873 44.1899 79.9747V53.3418C44.1899 51.3165 45.27 50.3038 47.4304 50.3038H73.4557C74.4008 50.3038 75.076 50.6076 75.481 51.2152C75.9536 51.7553 76.1899 52.3629 76.1899 53.038C76.1899 53.7131 75.9536 54.3544 75.481 54.962C75.076 55.5021 74.4008 55.7722 73.4557 55.7722H49.6582L49.557 75.4177Z" fill="#B41D1D"/>
<path d="M81.2816 278.187C73.8302 287.396 70.1045 292 65 292C59.8955 292 56.1698 287.396 48.7184 278.187L36.4445 263.018C32.1482 257.709 30 255.054 30 252C30 248.946 32.1482 246.291 36.4445 240.982L48.7184 225.813C56.1698 216.604 59.8955 212 65 212C70.1045 212 73.8302 216.604 81.2816 225.813L93.5555 240.982C97.8518 246.291 100 248.946 100 252C100 255.054 97.8518 257.709 93.5555 263.018L81.2816 278.187Z" fill="#B41D1D"/>
<defs>
<linearGradient id="paint0_linear_26_273" x1="-12.5" y1="-33.5" x2="240" y2="225" gradientUnits="userSpaceOnUse">
<stop stop-color="#DDDDDD"/>
<stop offset="1" stop-color="#777777"/>
</linearGradient>
</defs>
</svg>
