<svg width="240" height="330" viewBox="0 0 240 330" fill="none" xmlns="http://www.w3.org/2000/svg">
<rect x="1" y="1" width="238" height="328" rx="49" fill="#FEFEFE" stroke="url(#paint0_linear_26_248)" stroke-width="2"/>
<path d="M61.1013 53.443C62.3165 51.3502 64.173 50.3038 66.6709 50.3038C68.8312 50.3038 70.3165 51.1814 71.1266 52.9367C71.3966 53.5443 71.5316 54.2532 71.5316 55.0633V88.481H77.5063C78.384 88.481 79.0253 88.7511 79.4304 89.2911C79.903 89.8312 80.1392 90.4388 80.1392 91.1139C80.1392 91.789 79.903 92.3966 79.4304 92.9367C79.0253 93.4093 78.384 93.6456 77.5063 93.6456H71.5316V102.861C71.5316 103.806 71.2954 104.481 70.8228 104.886C70.0127 105.629 69.135 106 68.1899 106C66.7722 106 65.7257 105.392 65.0506 104.177C64.8481 103.84 64.7468 103.401 64.7468 102.861V93.6456H42.2658C41.1181 93.6456 40.2068 93.2743 39.5316 92.5316C38.8565 91.789 38.519 91.0802 38.519 90.4051C38.519 89.1899 38.7553 88.211 39.2278 87.4684L61.1013 53.443ZM44.4937 88.481H64.7468V56.6835L44.4937 88.481Z" fill="#B41D1D"/>
<path d="M81.2816 278.187C73.8302 287.396 70.1045 292 65 292C59.8955 292 56.1698 287.396 48.7184 278.187L36.4445 263.018C32.1482 257.709 30 255.054 30 252C30 248.946 32.1482 246.291 36.4445 240.982L48.7184 225.813C56.1698 216.604 59.8955 212 65 212C70.1045 212 73.8302 216.604 81.2816 225.813L93.5555 240.982C97.8518 246.291 100 248.946 100 252C100 255.054 97.8518 257.709 93.5555 263.018L81.2816 278.187Z" fill="#B41D1D"/>
<defs>
<linearGradient id="paint0_linear_26_248" x1="-12.5" y1="-33.5" x2="240" y2="225" gradientUnits="userSpaceOnUse">
<stop stop-color="#DDDDDD"/>
<stop offset="1" stop-color="#777777"/>
</linearGradient>
</defs>
</svg>
