<svg width="240" height="330" viewBox="0 0 240 330" fill="none" xmlns="http://www.w3.org/2000/svg">
<rect x="1" y="1" width="238" height="328" rx="49" fill="#FEFEFE" stroke="url(#paint0_linear_26_370)" stroke-width="2"/>
<path d="M51.8861 102.759C51.8861 104.312 51.1435 105.325 49.6582 105.797C49.2532 105.932 48.8481 106 48.443 106C46.9578 106 45.9114 105.392 45.3038 104.177C45.1013 103.772 45 103.3 45 102.759V53.5443C45 52.4641 45.3713 51.654 46.1139 51.1139C46.8565 50.5738 47.5316 50.3038 48.1392 50.3038C48.7468 50.3038 49.2532 50.3713 49.6582 50.5063C50.1308 50.6414 50.5021 50.8439 50.7722 51.1139C51.5148 51.7215 51.8861 52.5316 51.8861 53.5443V74.9114L75.3797 51.519C75.9873 50.7089 76.7637 50.3038 77.7089 50.3038C78.654 50.3038 79.4304 50.5738 80.038 51.1139C80.7131 51.654 81.0506 52.2954 81.0506 53.038C81.0506 53.7806 80.7806 54.4895 80.2405 55.1646L59.1772 75.6203L82.4684 100.532C83.0084 101.274 83.2785 101.949 83.2785 102.557C83.2785 103.165 83.1772 103.671 82.9747 104.076C82.8397 104.414 82.6034 104.717 82.2658 104.987C81.5232 105.662 80.6793 106 79.7342 106C78.789 106 77.9114 105.527 77.1013 104.582L51.8861 77.3418V102.759Z" fill="#B41D1D"/>
<path d="M81.2816 278.187C73.8302 287.396 70.1045 292 65 292C59.8955 292 56.1698 287.396 48.7184 278.187L36.4445 263.018C32.1482 257.709 30 255.054 30 252C30 248.946 32.1482 246.291 36.4445 240.982L48.7184 225.813C56.1698 216.604 59.8955 212 65 212C70.1045 212 73.8302 216.604 81.2816 225.813L93.5555 240.982C97.8518 246.291 100 248.946 100 252C100 255.054 97.8518 257.709 93.5555 263.018L81.2816 278.187Z" fill="#B41D1D"/>
<defs>
<linearGradient id="paint0_linear_26_370" x1="-12.5" y1="-33.5" x2="240" y2="225" gradientUnits="userSpaceOnUse">
<stop stop-color="#DDDDDD"/>
<stop offset="1" stop-color="#777777"/>
</linearGradient>
</defs>
</svg>
