<svg width="240" height="330" viewBox="0 0 240 330" fill="none" xmlns="http://www.w3.org/2000/svg">
<rect x="1" y="1" width="238" height="328" rx="49" fill="#FEFEFE" stroke="url(#paint0_linear_26_293)" stroke-width="2"/>
<path d="M48.5443 54.557C50.2321 53.0717 52.2574 51.9241 54.6203 51.1139C56.9831 50.2363 60.0886 49.7975 63.9367 49.7975C67.7848 49.7975 71.4641 50.7426 74.9747 52.6329C75.7848 52.9705 76.1899 53.6793 76.1899 54.7595C76.1899 55.9072 75.6835 56.8186 74.6709 57.4937C74.3333 57.6962 73.9958 57.7975 73.6582 57.7975C73.3882 57.7975 72.7806 57.5949 71.8354 57.1899C69 56.0422 66.2996 55.4684 63.7342 55.4684C61.1688 55.4684 59.0422 55.8059 57.3544 56.481C55.6667 57.1561 54.2489 58.0675 53.1013 59.2152C51.9536 60.2954 51.0084 61.5781 50.2658 63.0633C49.5232 64.5485 48.9494 66.135 48.5443 67.8228C47.9367 70.7257 47.6329 74.1688 47.6329 78.1519C48.9831 75.384 50.9072 73.3249 53.4051 71.9747C55.903 70.557 58.6371 69.8481 61.6076 69.8481C64.5781 69.8481 67.1097 70.2869 69.2025 71.1646C71.3629 72.0422 73.1857 73.2574 74.6709 74.8101C77.7089 77.9831 79.2278 82.3376 79.2278 87.8734C79.2278 93.5443 77.6076 98.1013 74.3671 101.544C71.1266 105.055 66.6371 106.81 60.8987 106.81C47.2616 106.81 40.443 98 40.443 80.3797C40.443 67.8903 43.1435 59.2827 48.5443 54.557ZM60.4937 101.342C62.2489 101.342 63.8692 101.038 65.3544 100.43C66.8397 99.8228 68.1224 98.9789 69.2025 97.8987C71.2278 95.6709 72.2405 92.4304 72.2405 88.1772C72.2405 82.0338 70.2152 77.9156 66.1646 75.8228C64.8143 75.1477 63.1266 74.8101 61.1013 74.8101C59.1435 74.8101 57.3544 75.1477 55.7342 75.8228C54.1814 76.4979 52.865 77.443 51.7848 78.6582C49.6245 80.9536 48.5443 84.2616 48.5443 88.5823C48.5443 92.3629 49.6245 95.4008 51.7848 97.6962C54.0802 100.127 56.9831 101.342 60.4937 101.342Z" fill="#1D1D1D"/>
<path d="M65 212C74.665 212 82.5 220.234 82.5 230.391C82.5 232.477 82.1684 234.482 81.5589 236.351C81.3407 237.02 81.8304 237.747 82.5 237.747C92.165 237.747 100 245.981 100 256.138C100 266.295 92.165 274.529 82.5 274.529C78.1972 274.529 74.2577 272.896 71.2103 270.189C70.5038 269.562 69.4015 270.025 69.4015 271C69.4015 280.903 74.074 287.39 81.0811 287.39C81.8541 287.39 82.5 288.073 82.5 288.89V289.747C82.5 290.991 81.5458 292 80.3688 292H49.6312C48.4542 292 47.5 290.991 47.5 289.747V288.89C47.5 288.073 48.1459 287.39 48.9189 287.39C55.926 287.39 60.5977 280.903 60.5977 271C60.5977 270.024 59.4953 269.562 58.7888 270.189C55.7416 272.896 51.8026 274.529 47.5 274.529C37.835 274.529 30 266.295 30 256.138C30 245.981 37.835 237.747 47.5 237.747C48.1692 237.747 48.6587 237.02 48.4406 236.351C47.8312 234.482 47.5 232.477 47.5 230.391C47.5 220.234 55.335 212 65 212Z" fill="#1D1D1D"/>
<defs>
<linearGradient id="paint0_linear_26_293" x1="-12.5" y1="-33.5" x2="240" y2="225" gradientUnits="userSpaceOnUse">
<stop stop-color="#DDDDDD"/>
<stop offset="1" stop-color="#777777"/>
</linearGradient>
</defs>
</svg>
