<svg width="240" height="330" viewBox="0 0 240 330" fill="none" xmlns="http://www.w3.org/2000/svg">
<rect x="1" y="1" width="238" height="328" rx="49" fill="#FEFEFE" stroke="url(#paint0_linear_26_215)" stroke-width="2"/>
<path d="M60.2911 55.5696C59.1435 55.5696 58.0633 55.6709 57.0506 55.8734C56.1055 56.0084 55.1941 56.2447 54.3165 56.5823C52.2236 57.3924 50.6709 58.135 49.6582 58.8101C48.9156 59.2152 48.173 59.4177 47.4304 59.4177C46.7553 59.4177 46.1477 59.1814 45.6076 58.7089C45.135 58.2363 44.8987 57.6962 44.8987 57.0886C44.8987 56.481 45.135 55.9072 45.6076 55.3671C46.0802 54.7595 46.7215 54.1857 47.5316 53.6456C48.3418 53.1055 49.2532 52.6329 50.2658 52.2278C51.346 51.7553 52.4599 51.3165 53.6076 50.9114C56.1055 50.1688 58.4346 49.7975 60.5949 49.7975C62.7553 49.7975 64.8143 50.1013 66.7722 50.7089C68.7975 51.2489 70.5527 52.0591 72.038 53.1392C75.346 55.5696 77 58.8439 77 62.962C77 69.7806 71.7679 78.3207 61.3038 88.5823C59.2785 90.6076 57.1519 92.7342 54.9241 94.962C52.7637 97.1224 50.8734 98.9114 49.2532 100.329H74.2658C75.211 100.329 75.8861 100.633 76.2911 101.241C76.7637 101.848 77 102.523 77 103.266C77 103.941 76.7637 104.582 76.2911 105.19C75.8186 105.73 75.1435 106 74.2658 106H45.9114C44.2911 106 43.0759 105.662 42.2658 104.987C41.5232 104.312 41.1519 103.502 41.1519 102.557C41.1519 100.734 42.0295 99.0802 43.7848 97.5949C45.0675 96.4473 46.6878 94.827 48.6456 92.7342C50.6034 90.6413 52.5274 88.6498 54.4177 86.7595C56.308 84.8692 58.1646 82.8776 59.9873 80.7848C61.8776 78.6245 63.5654 76.5316 65.0506 74.5063C68.2911 70.1181 69.9114 66.4726 69.9114 63.5696C69.9114 61.0042 68.8987 59.0127 66.8734 57.5949C64.9831 56.2447 62.789 55.5696 60.2911 55.5696Z" fill="#1D1D1D"/>
<path d="M65 212C74.665 212 82.5 220.234 82.5 230.391C82.5 232.477 82.1684 234.482 81.5589 236.351C81.3407 237.02 81.8304 237.747 82.5 237.747C92.165 237.747 100 245.981 100 256.138C100 266.295 92.165 274.529 82.5 274.529C78.1972 274.529 74.2577 272.896 71.2103 270.189C70.5038 269.562 69.4015 270.025 69.4015 271C69.4015 280.903 74.074 287.39 81.0811 287.39C81.8541 287.39 82.5 288.073 82.5 288.89V289.747C82.5 290.991 81.5458 292 80.3688 292H49.6312C48.4542 292 47.5 290.991 47.5 289.747V288.89C47.5 288.073 48.1459 287.39 48.9189 287.39C55.926 287.39 60.5977 280.903 60.5977 271C60.5977 270.024 59.4953 269.562 58.7888 270.189C55.7416 272.896 51.8026 274.529 47.5 274.529C37.835 274.529 30 266.295 30 256.138C30 245.981 37.835 237.747 47.5 237.747C48.1692 237.747 48.6587 237.02 48.4406 236.351C47.8312 234.482 47.5 232.477 47.5 230.391C47.5 220.234 55.335 212 65 212Z" fill="#1D1D1D"/>
<defs>
<linearGradient id="paint0_linear_26_215" x1="-12.5" y1="-33.5" x2="240" y2="225" gradientUnits="userSpaceOnUse">
<stop stop-color="#DDDDDD"/>
<stop offset="1" stop-color="#777777"/>
</linearGradient>
</defs>
</svg>
