<svg width="240" height="330" viewBox="0 0 240 330" fill="none" xmlns="http://www.w3.org/2000/svg">
<rect x="1" y="1" width="238" height="328" rx="49" fill="#FEFEFE" stroke="url(#paint0_linear_26_252)" stroke-width="2"/>
<path d="M61.1013 53.443C62.3165 51.3502 64.173 50.3038 66.6709 50.3038C68.8312 50.3038 70.3165 51.1814 71.1266 52.9367C71.3966 53.5443 71.5316 54.2532 71.5316 55.0633V88.481H77.5063C78.384 88.481 79.0253 88.7511 79.4304 89.2911C79.903 89.8312 80.1392 90.4388 80.1392 91.1139C80.1392 91.789 79.903 92.3966 79.4304 92.9367C79.0253 93.4093 78.384 93.6456 77.5063 93.6456H71.5316V102.861C71.5316 103.806 71.2954 104.481 70.8228 104.886C70.0127 105.629 69.135 106 68.1899 106C66.7722 106 65.7257 105.392 65.0506 104.177C64.8481 103.84 64.7468 103.401 64.7468 102.861V93.6456H42.2658C41.1181 93.6456 40.2068 93.2743 39.5316 92.5316C38.8565 91.789 38.519 91.0802 38.519 90.4051C38.519 89.1899 38.7553 88.211 39.2278 87.4684L61.1013 53.443ZM44.4937 88.481H64.7468V56.6835L44.4937 88.481Z" fill="#1D1D1D"/>
<path d="M65 212C74.665 212 82.5 220.234 82.5 230.391C82.5 232.477 82.1684 234.482 81.5589 236.351C81.3407 237.02 81.8304 237.747 82.5 237.747C92.165 237.747 100 245.981 100 256.138C100 266.295 92.165 274.529 82.5 274.529C78.1972 274.529 74.2577 272.896 71.2103 270.189C70.5038 269.562 69.4015 270.025 69.4015 271C69.4015 280.903 74.074 287.39 81.0811 287.39C81.8541 287.39 82.5 288.073 82.5 288.89V289.747C82.5 290.991 81.5458 292 80.3688 292H49.6312C48.4542 292 47.5 290.991 47.5 289.747V288.89C47.5 288.073 48.1459 287.39 48.9189 287.39C55.926 287.39 60.5977 280.903 60.5977 271C60.5977 270.024 59.4953 269.562 58.7888 270.189C55.7416 272.896 51.8026 274.529 47.5 274.529C37.835 274.529 30 266.295 30 256.138C30 245.981 37.835 237.747 47.5 237.747C48.1692 237.747 48.6587 237.02 48.4406 236.351C47.8312 234.482 47.5 232.477 47.5 230.391C47.5 220.234 55.335 212 65 212Z" fill="#1D1D1D"/>
<defs>
<linearGradient id="paint0_linear_26_252" x1="-12.5" y1="-33.5" x2="240" y2="225" gradientUnits="userSpaceOnUse">
<stop stop-color="#DDDDDD"/>
<stop offset="1" stop-color="#777777"/>
</linearGradient>
</defs>
</svg>
