<svg width="240" height="330" viewBox="0 0 240 330" fill="none" xmlns="http://www.w3.org/2000/svg">
<rect x="1" y="1" width="238" height="328" rx="49" fill="#FEFEFE" stroke="url(#paint0_linear_26_374)" stroke-width="2"/>
<path d="M51.8861 102.759C51.8861 104.312 51.1435 105.325 49.6582 105.797C49.2532 105.932 48.8481 106 48.443 106C46.9578 106 45.9114 105.392 45.3038 104.177C45.1013 103.772 45 103.3 45 102.759V53.5443C45 52.4641 45.3713 51.654 46.1139 51.1139C46.8565 50.5738 47.5316 50.3038 48.1392 50.3038C48.7468 50.3038 49.2532 50.3713 49.6582 50.5063C50.1308 50.6414 50.5021 50.8439 50.7722 51.1139C51.5148 51.7215 51.8861 52.5316 51.8861 53.5443V74.9114L75.3797 51.519C75.9873 50.7089 76.7637 50.3038 77.7089 50.3038C78.654 50.3038 79.4304 50.5738 80.038 51.1139C80.7131 51.654 81.0506 52.2954 81.0506 53.038C81.0506 53.7806 80.7806 54.4895 80.2405 55.1646L59.1772 75.6203L82.4684 100.532C83.0084 101.274 83.2785 101.949 83.2785 102.557C83.2785 103.165 83.1772 103.671 82.9747 104.076C82.8397 104.414 82.6034 104.717 82.2658 104.987C81.5232 105.662 80.6793 106 79.7342 106C78.789 106 77.9114 105.527 77.1013 104.582L51.8861 77.3418V102.759Z" fill="#1D1D1D"/>
<path d="M65 212C74.665 212 82.5 220.234 82.5 230.391C82.5 232.477 82.1684 234.482 81.5589 236.351C81.3407 237.02 81.8304 237.747 82.5 237.747C92.165 237.747 100 245.981 100 256.138C100 266.295 92.165 274.529 82.5 274.529C78.1972 274.529 74.2577 272.896 71.2103 270.189C70.5038 269.562 69.4015 270.025 69.4015 271C69.4015 280.903 74.074 287.39 81.0811 287.39C81.8541 287.39 82.5 288.073 82.5 288.89V289.747C82.5 290.991 81.5458 292 80.3688 292H49.6312C48.4542 292 47.5 290.991 47.5 289.747V288.89C47.5 288.073 48.1459 287.39 48.9189 287.39C55.926 287.39 60.5977 280.903 60.5977 271C60.5977 270.024 59.4953 269.562 58.7888 270.189C55.7416 272.896 51.8026 274.529 47.5 274.529C37.835 274.529 30 266.295 30 256.138C30 245.981 37.835 237.747 47.5 237.747C48.1692 237.747 48.6587 237.02 48.4406 236.351C47.8312 234.482 47.5 232.477 47.5 230.391C47.5 220.234 55.335 212 65 212Z" fill="#1D1D1D"/>
<defs>
<linearGradient id="paint0_linear_26_374" x1="-12.5" y1="-33.5" x2="240" y2="225" gradientUnits="userSpaceOnUse">
<stop stop-color="#DDDDDD"/>
<stop offset="1" stop-color="#777777"/>
</linearGradient>
</defs>
</svg>
