<svg width="240" height="330" viewBox="0 0 240 330" fill="none" xmlns="http://www.w3.org/2000/svg">
<rect x="1" y="1" width="238" height="328" rx="49" fill="#FEFEFE" stroke="url(#paint0_linear_26_309)" stroke-width="2"/>
<path d="M57.0506 104.076C56.5105 105.359 55.4641 106 53.9114 106C52.4262 106 51.3122 105.359 50.5696 104.076C50.2996 103.671 50.1646 103.266 50.1646 102.861C50.1646 102.388 50.2996 101.882 50.5696 101.342L70.4177 55.9747H43.8861C42.9409 55.9747 42.2321 55.7046 41.7595 55.1646C41.2869 54.557 41.0506 53.9156 41.0506 53.2405C41.0506 52.4979 41.2869 51.8228 41.7595 51.2152C42.2321 50.6076 42.9409 50.3038 43.8861 50.3038H73.7595C75.1772 50.3038 76.1899 50.6414 76.7975 51.3165C77.4726 51.9916 77.8101 52.8017 77.8101 53.7468C77.8101 54.692 77.6076 55.6034 77.2025 56.481L57.0506 104.076Z" fill="#1D1D1D"/>
<path d="M65 212C74.665 212 82.5 220.234 82.5 230.391C82.5 232.477 82.1684 234.482 81.5589 236.351C81.3407 237.02 81.8304 237.747 82.5 237.747C92.165 237.747 100 245.981 100 256.138C100 266.295 92.165 274.529 82.5 274.529C78.1972 274.529 74.2577 272.896 71.2103 270.189C70.5038 269.562 69.4015 270.025 69.4015 271C69.4015 280.903 74.074 287.39 81.0811 287.39C81.8541 287.39 82.5 288.073 82.5 288.89V289.747C82.5 290.991 81.5458 292 80.3688 292H49.6312C48.4542 292 47.5 290.991 47.5 289.747V288.89C47.5 288.073 48.1459 287.39 48.9189 287.39C55.926 287.39 60.5977 280.903 60.5977 271C60.5977 270.024 59.4953 269.562 58.7888 270.189C55.7416 272.896 51.8026 274.529 47.5 274.529C37.835 274.529 30 266.295 30 256.138C30 245.981 37.835 237.747 47.5 237.747C48.1692 237.747 48.6587 237.02 48.4406 236.351C47.8312 234.482 47.5 232.477 47.5 230.391C47.5 220.234 55.335 212 65 212Z" fill="#1D1D1D"/>
<defs>
<linearGradient id="paint0_linear_26_309" x1="-12.5" y1="-33.5" x2="240" y2="225" gradientUnits="userSpaceOnUse">
<stop stop-color="#DDDDDD"/>
<stop offset="1" stop-color="#777777"/>
</linearGradient>
</defs>
</svg>
