<svg width="240" height="330" viewBox="0 0 240 330" fill="none" xmlns="http://www.w3.org/2000/svg">
<rect x="1" y="1" width="238" height="328" rx="49" fill="#FEFEFE" stroke="url(#paint0_linear_26_236)" stroke-width="2"/>
<path d="M57.557 74.9114C61 74.9114 63.8692 74.1013 66.1646 72.481C68.73 70.6582 70.0127 68.1941 70.0127 65.0886C70.0127 62.1857 68.8987 59.8565 66.6709 58.1013C64.6456 56.481 62.0802 55.6709 58.9747 55.6709C56.7468 55.6709 54.5865 55.9747 52.4937 56.5823C50.4684 57.1899 49.0169 57.6287 48.1392 57.8987C47.3291 58.1688 46.6203 58.3038 46.0127 58.3038C45.4726 58.3038 44.9325 58 44.3924 57.3924C43.9198 56.7848 43.6835 56.1772 43.6835 55.5696C43.6835 54.1519 44.2911 53.2067 45.5063 52.7342C49.8945 50.7764 54.2827 49.7975 58.6709 49.7975C63.9367 49.7975 68.2236 51.0464 71.5316 53.5443C75.2447 56.2447 77.1013 60.0591 77.1013 64.9873C77.1013 68.1603 76.0211 70.8945 73.8608 73.1899C71.8354 75.3502 69.3376 76.7004 66.3671 77.2405V77.443C69.8776 78.1181 72.6793 79.7384 74.7722 82.3038C76.9325 84.8692 78.0127 87.7384 78.0127 90.9114C78.0127 94.0169 77.4726 96.5485 76.3924 98.5063C75.3797 100.464 73.9958 102.084 72.2405 103.367C69.0675 105.662 64.8143 106.81 59.481 106.81C56.3755 106.81 53.2025 106.304 49.962 105.291C47.7342 104.616 46.2152 103.907 45.4051 103.165C44.6624 102.354 44.2911 101.646 44.2911 101.038C44.2911 100.363 44.5274 99.7553 45 99.2152C45.5401 98.6076 46.1139 98.3038 46.7215 98.3038C47.3291 98.3038 47.8354 98.4051 48.2405 98.6076C48.7131 98.7426 49.3544 98.9789 50.1646 99.3165C51.0422 99.654 51.9873 99.9241 53 100.127C55.4304 100.734 57.5232 101.038 59.2785 101.038C61.1013 101.038 62.7215 100.835 64.1392 100.43C65.557 100.025 66.7722 99.4177 67.7848 98.6076C69.8101 96.9198 70.8228 94.5907 70.8228 91.6203C70.8228 88.1772 69.5401 85.4093 66.9747 83.3165C64.6793 81.3586 61.7426 80.3797 58.1646 80.3797H55.2278C54.3502 80.3797 53.6751 80.1097 53.2025 79.5696C52.7975 78.962 52.5949 78.3207 52.5949 77.6456C52.5949 76.9705 52.7975 76.3629 53.2025 75.8228C53.6751 75.2827 54.3502 74.9789 55.2278 74.9114H57.557Z" fill="#1D1D1D"/>
<path d="M65 212C74.665 212 82.5 220.234 82.5 230.391C82.5 232.477 82.1684 234.482 81.5589 236.351C81.3407 237.02 81.8304 237.747 82.5 237.747C92.165 237.747 100 245.981 100 256.138C100 266.295 92.165 274.529 82.5 274.529C78.1972 274.529 74.2577 272.896 71.2103 270.189C70.5038 269.562 69.4015 270.025 69.4015 271C69.4015 280.903 74.074 287.39 81.0811 287.39C81.8541 287.39 82.5 288.073 82.5 288.89V289.747C82.5 290.991 81.5458 292 80.3688 292H49.6312C48.4542 292 47.5 290.991 47.5 289.747V288.89C47.5 288.073 48.1459 287.39 48.9189 287.39C55.926 287.39 60.5977 280.903 60.5977 271C60.5977 270.024 59.4953 269.562 58.7888 270.189C55.7416 272.896 51.8026 274.529 47.5 274.529C37.835 274.529 30 266.295 30 256.138C30 245.981 37.835 237.747 47.5 237.747C48.1692 237.747 48.6587 237.02 48.4406 236.351C47.8312 234.482 47.5 232.477 47.5 230.391C47.5 220.234 55.335 212 65 212Z" fill="#1D1D1D"/>
<defs>
<linearGradient id="paint0_linear_26_236" x1="-12.5" y1="-33.5" x2="240" y2="225" gradientUnits="userSpaceOnUse">
<stop stop-color="#DDDDDD"/>
<stop offset="1" stop-color="#777777"/>
</linearGradient>
</defs>
</svg>
