<svg width="240" height="330" viewBox="0 0 240 330" fill="none" xmlns="http://www.w3.org/2000/svg">
<rect x="1" y="1" width="238" height="328" rx="49" fill="#FEFEFE" stroke="url(#paint0_linear_6_7)" stroke-width="2"/>
<path d="M89.2532 101.747C89.3882 102.219 89.4557 102.658 89.4557 103.063C89.4557 103.401 89.3207 103.772 89.0506 104.177C88.8481 104.582 88.5781 104.92 88.2405 105.19C87.5654 105.73 86.8228 106 86.0127 106C84.3924 106 83.3122 105.325 82.7722 103.975L77.8101 91.4177H50.1646L45.2025 103.975C44.73 105.325 43.7848 106 42.3671 106C40.8819 106 39.8354 105.392 39.2278 104.177C39.0253 103.772 38.9241 103.401 38.9241 103.063C38.9241 102.658 38.9916 102.219 39.1266 101.747L57.6582 56.3797C58.9409 52.8692 60.4937 50.9114 62.3165 50.5063C62.8565 50.3713 63.4641 50.3038 64.1392 50.3038C65.557 50.3038 66.6034 50.5738 67.2785 51.1139C68.5612 52.2616 69.6414 54.0169 70.519 56.3797L89.2532 101.747ZM52.1899 86.1519H75.8861L64.038 56.076L52.1899 86.1519Z" fill="#1D1D1D"/>
<path d="M65 212C74.665 212 82.5 220.234 82.5 230.391C82.5 232.477 82.1684 234.482 81.5589 236.351C81.3407 237.02 81.8304 237.747 82.5 237.747C92.165 237.747 100 245.981 100 256.138C100 266.295 92.165 274.529 82.5 274.529C78.1972 274.529 74.2577 272.896 71.2103 270.189C70.5038 269.562 69.4015 270.025 69.4015 271C69.4015 280.903 74.074 287.39 81.0811 287.39C81.8541 287.39 82.5 288.073 82.5 288.89V289.747C82.5 290.991 81.5458 292 80.3688 292H49.6312C48.4542 292 47.5 290.991 47.5 289.747V288.89C47.5 288.073 48.1459 287.39 48.9189 287.39C55.926 287.39 60.5977 280.903 60.5977 271C60.5977 270.024 59.4953 269.562 58.7888 270.189C55.7416 272.896 51.8026 274.529 47.5 274.529C37.835 274.529 30 266.295 30 256.138C30 245.981 37.835 237.747 47.5 237.747C48.1692 237.747 48.6587 237.02 48.4406 236.351C47.8312 234.482 47.5 232.477 47.5 230.391C47.5 220.234 55.335 212 65 212Z" fill="#1D1D1D"/>
<defs>
<linearGradient id="paint0_linear_6_7" x1="-12.5" y1="-33.5" x2="240" y2="225" gradientUnits="userSpaceOnUse">
<stop stop-color="#DDDDDD"/>
<stop offset="1" stop-color="#777777"/>
</linearGradient>
</defs>
</svg>
