<svg width="240" height="330" viewBox="0 0 240 330" fill="none" xmlns="http://www.w3.org/2000/svg">
<rect x="1" y="1" width="238" height="328" rx="49" fill="#FEFEFE" stroke="url(#paint0_linear_26_358)" stroke-width="2"/>
<path d="M75.2785 106C72.5781 106.54 70.2152 106.81 68.1899 106.81C59.8186 106.81 53.3376 104.177 48.7468 98.9114C46.519 96.4135 44.8312 93.3755 43.6835 89.7975C42.5359 86.2194 41.962 82.4388 41.962 78.4557C41.962 74.4051 42.5359 70.5907 43.6835 67.0127C44.8312 63.4346 46.519 60.3629 48.7468 57.7975C53.4726 52.4641 59.9536 49.7975 68.1899 49.7975C76.4937 49.7975 82.9747 52.4641 87.6329 57.7975C92.0886 62.9958 94.3165 69.8819 94.3165 78.4557C94.3165 82.6413 93.4388 86.7595 91.6835 90.8101C90.1308 94.3207 87.8354 97.5274 84.7975 100.43H93.6076C94.5527 100.43 95.2616 100.734 95.7342 101.342C96.2068 101.882 96.443 102.523 96.443 103.266C96.443 103.941 96.2068 104.582 95.7342 105.19C95.2616 105.73 94.5527 106 93.6076 106H75.2785ZM53.8101 62.557C52.3249 64.7173 51.211 67.2152 50.4684 70.0506C49.7932 72.8861 49.4557 75.6878 49.4557 78.4557C49.4557 81.1561 49.7932 83.9241 50.4684 86.7595C51.211 89.5949 52.3249 92.0928 53.8101 94.2532C55.3629 96.4135 57.3207 98.135 59.6835 99.4177C62.0464 100.7 64.8819 101.342 68.1899 101.342C71.4979 101.342 74.3333 100.7 76.6962 99.4177C79.0591 98.135 81.0169 96.4135 82.5696 94.2532C85.4726 90.2025 86.924 84.9705 86.924 78.557C86.924 68.1603 83.5148 61.1055 76.6962 57.3924C74.3333 56.1097 71.4979 55.4684 68.1899 55.4684C64.8819 55.4684 62.0464 56.1097 59.6835 57.3924C57.3207 58.6751 55.3629 60.3966 53.8101 62.557Z" fill="#1D1D1D"/>
<path d="M65 212C74.665 212 82.5 220.234 82.5 230.391C82.5 232.477 82.1684 234.482 81.5589 236.351C81.3407 237.02 81.8304 237.747 82.5 237.747C92.165 237.747 100 245.981 100 256.138C100 266.295 92.165 274.529 82.5 274.529C78.1972 274.529 74.2577 272.896 71.2103 270.189C70.5038 269.562 69.4015 270.025 69.4015 271C69.4015 280.903 74.074 287.39 81.0811 287.39C81.8541 287.39 82.5 288.073 82.5 288.89V289.747C82.5 290.991 81.5458 292 80.3688 292H49.6312C48.4542 292 47.5 290.991 47.5 289.747V288.89C47.5 288.073 48.1459 287.39 48.9189 287.39C55.926 287.39 60.5977 280.903 60.5977 271C60.5977 270.024 59.4953 269.562 58.7888 270.189C55.7416 272.896 51.8026 274.529 47.5 274.529C37.835 274.529 30 266.295 30 256.138C30 245.981 37.835 237.747 47.5 237.747C48.1692 237.747 48.6587 237.02 48.4406 236.351C47.8312 234.482 47.5 232.477 47.5 230.391C47.5 220.234 55.335 212 65 212Z" fill="#1D1D1D"/>
<defs>
<linearGradient id="paint0_linear_26_358" x1="-12.5" y1="-33.5" x2="240" y2="225" gradientUnits="userSpaceOnUse">
<stop stop-color="#DDDDDD"/>
<stop offset="1" stop-color="#777777"/>
</linearGradient>
</defs>
</svg>
