<svg width="240" height="330" viewBox="0 0 240 330" fill="none" xmlns="http://www.w3.org/2000/svg">
<rect x="1" y="1" width="238" height="328" rx="49" fill="#FEFEFE" stroke="url(#paint0_linear_26_277)" stroke-width="2"/>
<path d="M49.557 75.4177C52.9325 71.7722 57.0844 69.9494 62.0127 69.9494C67.0759 69.9494 71.1603 71.7046 74.2658 75.2152C77.3713 78.6582 78.9241 82.9789 78.9241 88.1772C78.9241 93.5781 77.2025 98.0338 73.7595 101.544C70.384 105.055 65.8945 106.81 60.2911 106.81C53.6751 106.81 48.7468 104.987 45.5063 101.342C44.4262 100.127 43.481 98.3713 42.6709 96.0759C42.5359 95.8059 42.4684 95.4008 42.4684 94.8608C42.4684 94.3207 42.7046 93.8143 43.1772 93.3418C43.7173 92.8017 44.2911 92.5316 44.8987 92.5316C46.0464 92.5316 46.9578 93.1392 47.6329 94.3544C49.5232 99.0127 53.5063 101.342 59.5823 101.342C65.4557 101.342 69.27 98.6414 71.0253 93.2405C71.4979 91.6203 71.7342 89.865 71.7342 87.9747C71.7342 86.0169 71.4979 84.2954 71.0253 82.8101C70.5527 81.3249 69.8439 80.0084 68.8987 78.8608C66.8059 76.4304 64.1055 75.2152 60.7975 75.2152C58.3671 75.2152 56.1055 75.8565 54.0127 77.1392C52.3924 78.1519 51.2785 79.1983 50.6709 80.2785C49.6582 82.1013 48.4093 83.0127 46.9241 83.0127C46.1814 83.0127 45.5401 82.7764 45 82.3038C44.4599 81.7637 44.1899 80.9873 44.1899 79.9747V53.3418C44.1899 51.3165 45.27 50.3038 47.4304 50.3038H73.4557C74.4008 50.3038 75.076 50.6076 75.481 51.2152C75.9536 51.7553 76.1899 52.3629 76.1899 53.038C76.1899 53.7131 75.9536 54.3544 75.481 54.962C75.076 55.5021 74.4008 55.7722 73.4557 55.7722H49.6582L49.557 75.4177Z" fill="#1D1D1D"/>
<path d="M65 212C74.665 212 82.5 220.234 82.5 230.391C82.5 232.477 82.1684 234.482 81.5589 236.351C81.3407 237.02 81.8304 237.747 82.5 237.747C92.165 237.747 100 245.981 100 256.138C100 266.295 92.165 274.529 82.5 274.529C78.1972 274.529 74.2577 272.896 71.2103 270.189C70.5038 269.562 69.4015 270.025 69.4015 271C69.4015 280.903 74.074 287.39 81.0811 287.39C81.8541 287.39 82.5 288.073 82.5 288.89V289.747C82.5 290.991 81.5458 292 80.3688 292H49.6312C48.4542 292 47.5 290.991 47.5 289.747V288.89C47.5 288.073 48.1459 287.39 48.9189 287.39C55.926 287.39 60.5977 280.903 60.5977 271C60.5977 270.024 59.4953 269.562 58.7888 270.189C55.7416 272.896 51.8026 274.529 47.5 274.529C37.835 274.529 30 266.295 30 256.138C30 245.981 37.835 237.747 47.5 237.747C48.1692 237.747 48.6587 237.02 48.4406 236.351C47.8312 234.482 47.5 232.477 47.5 230.391C47.5 220.234 55.335 212 65 212Z" fill="#1D1D1D"/>
<defs>
<linearGradient id="paint0_linear_26_277" x1="-12.5" y1="-33.5" x2="240" y2="225" gradientUnits="userSpaceOnUse">
<stop stop-color="#DDDDDD"/>
<stop offset="1" stop-color="#777777"/>
</linearGradient>
</defs>
</svg>
