<svg width="240" height="330" viewBox="0 0 240 330" fill="none" xmlns="http://www.w3.org/2000/svg">
<rect x="1" y="1" width="238" height="328" rx="49" fill="#FEFEFE" stroke="url(#paint0_linear_26_325)" stroke-width="2"/>
<path d="M54.4177 101.241C61.2363 101.241 64.6456 96.8861 64.6456 88.1772V53.5443C64.6456 51.9916 65.3882 50.9789 66.8734 50.5063C67.2785 50.3713 67.7173 50.3038 68.1899 50.3038C69.6751 50.3038 70.7215 50.9114 71.3291 52.1266C71.5316 52.5316 71.6329 53.0042 71.6329 53.5443V88.7848C71.6329 94.9283 69.8776 99.5865 66.3671 102.759C63.3291 105.46 59.346 106.81 54.4177 106.81C51.1097 106.81 48.1392 105.932 45.5063 104.177C42.7384 102.489 40.8143 99.9916 39.7342 96.6835C39.4641 96.0759 39.3291 95.4346 39.3291 94.7595C39.3291 94.0169 39.5992 93.4093 40.1392 92.9367C40.7468 92.4641 41.3544 92.2278 41.962 92.2278C43.2447 92.2278 44.1224 92.7679 44.5949 93.8481C46.2827 98.7764 49.557 101.241 54.4177 101.241Z" fill="#1D1D1D"/>
<path d="M65 212C74.665 212 82.5 220.234 82.5 230.391C82.5 232.477 82.1684 234.482 81.5589 236.351C81.3407 237.02 81.8304 237.747 82.5 237.747C92.165 237.747 100 245.981 100 256.138C100 266.295 92.165 274.529 82.5 274.529C78.1972 274.529 74.2577 272.896 71.2103 270.189C70.5038 269.562 69.4015 270.025 69.4015 271C69.4015 280.903 74.074 287.39 81.0811 287.39C81.8541 287.39 82.5 288.073 82.5 288.89V289.747C82.5 290.991 81.5458 292 80.3688 292H49.6312C48.4542 292 47.5 290.991 47.5 289.747V288.89C47.5 288.073 48.1459 287.39 48.9189 287.39C55.926 287.39 60.5977 280.903 60.5977 271C60.5977 270.024 59.4953 269.562 58.7888 270.189C55.7416 272.896 51.8026 274.529 47.5 274.529C37.835 274.529 30 266.295 30 256.138C30 245.981 37.835 237.747 47.5 237.747C48.1692 237.747 48.6587 237.02 48.4406 236.351C47.8312 234.482 47.5 232.477 47.5 230.391C47.5 220.234 55.335 212 65 212Z" fill="#1D1D1D"/>
<defs>
<linearGradient id="paint0_linear_26_325" x1="-12.5" y1="-33.5" x2="240" y2="225" gradientUnits="userSpaceOnUse">
<stop stop-color="#DDDDDD"/>
<stop offset="1" stop-color="#777777"/>
</linearGradient>
</defs>
</svg>
