<svg width="70" height="80" viewBox="0 0 70 80" fill="none" xmlns="http://www.w3.org/2000/svg">
<path d="M34.976 0C38.0781 7.16714e-05 40.5749 2.59307 45.5678 7.7793L63.5687 26.4785C63.5709 26.4809 63.5707 26.4848 63.5687 26.4873C63.5671 26.4898 63.5677 26.4929 63.5697 26.4951C63.7406 26.6608 63.9109 26.8289 64.0775 27.002C71.9743 35.2047 71.9743 48.5043 64.0775 56.707C57.3887 63.6547 47.1801 64.7166 39.4144 59.8945C39.6881 69.2918 44.2876 75.3896 51.0814 75.3896C51.8543 75.3899 52.5003 76.0726 52.5004 76.8896V77.7471C52.5004 78.9911 51.5462 79.9996 50.3695 80H19.6312C18.4544 79.9998 17.5004 78.9912 17.5004 77.7471V76.8896C17.5004 76.0725 18.1463 75.3896 18.9193 75.3896C25.6781 75.3894 30.2622 69.3541 30.5785 60.0391C22.8135 64.8565 12.6091 63.7936 5.92225 56.8477C-1.97411 48.645 -1.97405 35.3462 5.92225 27.1436C6.08814 26.9712 6.25889 26.8047 6.42909 26.6396V26.6123L6.44471 26.5967C6.45683 26.5841 6.45682 26.5634 6.44471 26.5508L6.42323 26.5283C6.39899 26.5031 6.39899 26.4617 6.42323 26.4365L24.3842 7.7793C29.377 2.593 31.8738 0 34.976 0Z" fill="#F5F1E9"/>
</svg>
