<svg width="70" height="80" viewBox="0 0 70 80" fill="none" xmlns="http://www.w3.org/2000/svg">
<path d="M51.2816 66.1869C43.8302 75.3956 40.1045 80 35 80C29.8955 80 26.1698 75.3956 18.7184 66.1869L6.44448 51.0185C2.14816 45.7089 0 43.0542 0 40C0 36.9458 2.14816 34.2911 6.44448 28.9815L18.7184 13.8131C26.1698 4.60437 29.8955 0 35 0C40.1045 0 43.8302 4.60437 51.2816 13.8131L63.5555 28.9815C67.8518 34.2911 70 36.9458 70 40C70 43.0542 67.8518 45.7089 63.5555 51.0185L51.2816 66.1869Z" fill="#F5F1E9"/>
</svg>
