<svg width="70" height="80" viewBox="0 0 70 80" fill="none" xmlns="http://www.w3.org/2000/svg">
<path d="M35 0C44.665 0 52.5 8.23384 52.5 18.3908C52.5 20.477 52.1684 22.4816 51.5589 24.3507C51.3407 25.0198 51.8304 25.7471 52.5 25.7471C62.165 25.7471 70 33.981 70 44.1379C70 54.2949 62.165 62.5287 52.5 62.5287C48.1972 62.5287 44.2577 60.8964 41.2103 58.1892C40.5039 57.5617 39.4015 58.0245 39.4015 59C39.4015 68.903 44.074 75.3897 51.0811 75.3897C51.8541 75.3897 52.5 76.0725 52.5 76.8898V77.7471C52.5 78.9913 51.5458 80 50.3688 80H19.6312C18.4542 80 17.5 78.9913 17.5 77.7471V76.8898C17.5 76.0725 18.1459 75.3897 18.9189 75.3897C25.926 75.3897 30.5977 68.903 30.5977 59C30.5977 58.0245 29.4953 57.5616 28.7888 58.1892C25.7416 60.8962 21.8026 62.5287 17.5 62.5287C7.83502 62.5287 0 54.2949 0 44.1379C0 33.981 7.83502 25.7471 17.5 25.7471C18.1692 25.7471 18.6587 25.0203 18.4406 24.3515C17.8312 22.4822 17.5 20.4772 17.5 18.3908C17.5 8.23384 25.335 0 35 0Z" fill="#F5F1E9"/>
</svg>
